<svg width="1171" height="873" viewBox="0 0 1171 873" fill="none" xmlns="http://www.w3.org/2000/svg">
<path d="M541.104 722.831C505.933 743.162 469.065 756.386 427.087 756.213C380.298 756.016 333.915 724.621 304.603 690.165C293.712 677.367 284.188 662.576 281.98 645.921C276.894 607.444 312.105 596.499 343.809 596.987C361.679 597.253 378.962 602.206 396.052 607.116C424.425 615.277 456.066 616.005 482.685 629.678C491.62 634.283 498.837 640.469 508.731 643.19C524.123 647.426 540.84 647.672 556.5 651.221C569.875 654.278 585.35 660.518 587.872 673.999C590.443 687.827 577.653 699.319 565.999 707.178C557.754 712.767 549.485 718.002 541.104 722.831Z" fill="url(#paint0_linear)"/>
<path d="M292.8 267.685C333.798 157.432 457.155 86.9831 573.386 96.1937C629.435 100.644 681.635 125.711 730.793 152.964C774.122 176.984 817.026 203.829 851.439 239.921C874.934 264.556 895.142 296.035 911.325 326.079C935.538 371.07 939.394 435.736 876.184 446.41C861.354 448.916 847.466 446.764 832.717 445.517C820.784 444.501 810.529 449.375 798.64 450.363C768.718 452.857 738.371 449.048 709.089 443.054C649.407 430.812 592.113 408.355 531.679 399.621C482.158 392.487 431.73 394.892 383.114 406.708C362.604 411.695 341.399 418.41 320.815 413.734C270.076 402.19 275.467 336.231 283.946 297.793C286.181 287.56 289.14 277.499 292.8 267.685V267.685Z" fill="url(#paint1_linear)"/>
<path d="M792.509 161.679C804.569 168.201 849.33 183.109 843.062 154.285C841.491 147.107 836.558 140.971 830.873 136.825C824.365 132.061 817.882 130.314 812.235 124.29C805.354 117.033 797.931 110.445 790.063 104.614C773.912 92.4214 755.963 81.8969 736.832 79.9346C723.415 78.5635 702.791 84.7857 700.803 102.038C697.901 127.154 735.452 122.429 748.644 128.092C761.158 133.446 770.486 145.627 781.515 154.422C784.998 157.194 788.679 159.623 792.509 161.679V161.679Z" fill="url(#paint2_linear)"/>
<path d="M588.693 174.827C614.29 182.519 635.899 198.124 660.184 209.006C700.615 227.12 748.483 221.127 791.926 229.97C836.226 238.999 873.347 260.801 897.191 299.487C927.983 349.418 945.44 413.489 944.213 472.875C942.855 538.246 914.357 588.428 864.751 629.388C815.174 670.325 755.988 698.257 694.502 716.089C688.57 717.814 682.619 719.419 676.619 720.929C541.845 754.768 350.563 751.261 269.103 617.528C268.357 616.306 267.629 615.08 266.895 613.836C258.204 598.843 251.339 582.863 246.447 566.237C228.958 507.334 223.276 438.982 230.489 377.981C235.331 336.916 260.321 304.898 286.665 274.42C323.678 231.601 373.853 202.877 427.337 185.728C466.943 173.031 512.012 160.897 553.895 166.978C565.674 168.721 577.306 171.345 588.693 174.827Z" fill="url(#paint3_linear)"/>
<path d="M902.258 591.85C878.601 624.876 850.466 652.125 812.152 669.277C769.445 688.392 714.243 678.916 673.331 659.613C658.132 652.445 643.356 642.897 634.477 628.635C613.977 595.678 641.541 571.187 670.626 558.559C687.016 551.433 704.803 548.818 722.397 546.245C751.612 541.979 780.737 529.595 810.625 531.075C820.665 531.586 829.79 534.246 839.926 532.645C855.695 530.157 871.026 523.488 886.756 520.264C900.202 517.533 916.873 516.838 924.73 528.078C932.774 539.616 925.86 555.36 918.484 567.325C913.278 575.816 907.903 583.996 902.258 591.85Z" fill="url(#paint4_linear)"/>
<path d="M506.432 412.303C506.091 412.303 505.748 412.194 505.455 411.969C505.188 411.759 498.859 406.76 494.026 396.563C489.594 387.211 485.658 371.535 492.066 349.922C496.412 335.26 500.768 324.837 504.609 315.635C511.583 298.941 516.623 286.879 517.03 261.307C517.043 260.432 517.689 259.681 518.643 259.742C519.525 259.758 520.225 260.477 520.212 261.358C519.795 287.54 514.389 300.481 507.545 316.863C503.734 325.989 499.416 336.329 495.117 350.828C483.431 390.231 507.17 409.27 507.412 409.455C508.102 409.996 508.226 410.995 507.689 411.689C507.374 412.093 506.906 412.303 506.432 412.303Z" fill="#000C3E"/>
<path d="M636.799 161.036C636.561 178.37 622.316 192.233 604.979 191.994C587.645 191.756 573.785 177.511 574.021 160.174C574.259 142.84 588.507 128.98 605.841 129.216C623.175 129.454 637.038 143.702 636.799 161.036Z" fill="#000C3E"/>
<path d="M503.394 401.09C503.394 401.09 513.051 419.859 550.808 425.646C588.563 431.431 617.749 417.125 647.024 426.963C676.299 436.805 717.907 422.092 725.928 409.699C733.952 397.306 729.001 262.283 705.577 240.18C682.153 218.076 561.792 202.021 536.433 229.139C511.075 256.26 486.55 386.269 503.394 401.09Z" fill="#000C3E"/>
<path d="M717.938 289.381C717.155 346.509 670.209 392.186 613.078 391.403C555.95 390.62 510.273 343.671 511.055 286.543C511.841 229.415 558.788 183.738 615.916 184.52C673.044 185.306 718.721 232.253 717.938 289.381Z" fill="#000C3E"/>
<path d="M529.966 286.087C529.966 286.087 537.198 411.521 622.201 414.925C707.201 418.33 702.915 241.46 671.801 225.364C640.687 209.271 512.587 215.472 529.966 286.087Z" fill="#FFCEB0"/>
<path d="M617.744 310.892C617.744 310.892 634.871 349.146 630.761 351.806C626.65 354.462 614.432 354.297 611.075 351.535C607.719 348.773 611.012 306.727 617.744 310.892Z" fill="#F5A473"/>
<path d="M592.633 324.427C592.522 328.83 588.863 332.311 584.46 332.2C580.056 332.092 576.575 328.433 576.687 324.029C576.795 319.626 580.454 316.145 584.86 316.253C589.264 316.364 592.745 320.023 592.633 324.427Z" fill="#41294A"/>
<path d="M661.01 319.046C660.899 323.449 657.24 326.93 652.836 326.819C648.433 326.711 644.952 323.052 645.064 318.648C645.172 314.244 648.831 310.764 653.237 310.872C657.641 310.983 661.122 314.642 661.01 319.046Z" fill="#41294A"/>
<path d="M595.202 217.554C595.202 217.554 565.118 232.995 559.986 260.759C554.851 288.523 559.525 359.192 527.205 356.714C527.205 356.714 461.451 218.197 595.202 217.554" fill="#41294A"/>
<path d="M611.256 217.774C608.542 219.817 642.679 218.923 662.759 242.121C682.842 265.319 688.881 324.343 691.926 325.368C694.971 326.396 705.257 251.736 683.329 229.9C661.4 208.067 626.7 206.152 611.256 217.774Z" fill="#41294A"/>
<path d="M684.725 330.584C684.725 330.584 692.103 298.964 706.542 309.814C720.98 320.664 708.938 353.808 694.998 357.12C681.062 360.432 677.372 346.967 684.725 330.584Z" fill="#FFCEB0"/>
<path d="M550.746 328.747C550.746 328.747 544.236 296.936 529.505 307.385C514.777 317.834 525.906 351.299 539.747 354.993C553.591 358.684 557.647 345.327 550.746 328.747Z" fill="#FFCEB0"/>
<path d="M649.183 290.911C649.183 290.911 664.195 282.992 673.444 294.37C681.58 304.373 663.011 296.266 656.177 297.561C649.339 298.859 640.31 298.293 649.183 290.911Z" fill="#41294A"/>
<path d="M589.527 293.794C589.527 293.794 574.13 286.651 565.473 298.484C557.859 308.891 575.989 299.845 582.883 300.794C589.775 301.739 598.767 300.711 589.527 293.794Z" fill="#41294A"/>
<path d="M643.732 375.181C643.732 375.181 633.939 360.382 623.344 361.315C612.745 362.25 604.622 375.89 603.197 376.463C603.197 376.463 619.736 384.229 643.732 375.181" fill="#41294A"/>
<path d="M584.172 306.668C570.914 306.668 559.979 317.461 559.794 330.722C559.708 337.232 562.158 343.392 566.702 348.062C571.245 352.73 577.332 355.349 583.845 355.438L584.185 355.441C597.443 355.441 608.379 344.652 608.56 331.39C608.745 317.947 597.959 306.859 584.513 306.671L584.172 306.668ZM584.185 358.623L583.8 358.619C576.438 358.521 569.556 355.555 564.42 350.28C559.285 345.002 556.514 338.04 556.612 330.677C556.819 315.685 569.183 303.486 584.172 303.486L584.557 303.49C599.757 303.7 611.949 316.236 611.742 331.432C611.539 346.424 599.174 358.623 584.185 358.623Z" fill="#FFFCF6"/>
<path d="M653.038 301.156C639.777 301.156 628.841 311.949 628.66 325.21C628.475 338.65 639.264 349.741 652.707 349.926L653.048 349.929C666.309 349.929 677.245 339.14 677.426 325.878C677.515 319.365 675.062 313.206 670.522 308.535C665.978 303.87 659.891 301.249 653.378 301.159L653.038 301.156ZM653.048 353.111L652.666 353.108C637.463 352.898 625.271 340.362 625.478 325.166C625.685 310.173 638.046 297.975 653.038 297.975L653.423 297.978C660.786 298.076 667.668 301.042 672.8 306.317C677.938 311.596 680.71 318.557 680.608 325.92C680.401 340.912 668.037 353.111 653.048 353.111Z" fill="#FFFCF6"/>
<path d="M558.887 326.728C558.705 326.728 558.517 326.696 558.339 326.632L548.135 322.884C547.311 322.579 546.888 321.666 547.191 320.838C547.493 320.017 548.412 319.601 549.233 319.896L559.434 323.641C560.261 323.947 560.681 324.86 560.379 325.687C560.143 326.33 559.536 326.728 558.887 326.728Z" fill="#FFFCF6"/>
<path d="M677.873 319.497C677.196 319.497 676.566 319.061 676.356 318.38C676.092 317.544 676.559 316.65 677.399 316.385L691.345 312.033C692.178 311.766 693.076 312.24 693.337 313.076C693.601 313.916 693.133 314.807 692.293 315.071L678.347 319.427C678.192 319.475 678.029 319.497 677.873 319.497Z" fill="#FFFCF6"/>
<path d="M610.759 246.943C610.759 246.943 610.788 278.674 629.69 284.404C648.59 290.138 697.21 287.608 696.717 279.854C692.265 209.847 659.357 213.369 631.873 204.409C583.673 188.701 544.251 267.401 550.153 286.002C556.055 304.599 596.737 287.233 605.445 284.617C614.151 281.999 609.327 260.436 610.759 246.943" fill="#000C3E"/>
<g opacity="0.210007">
<g opacity="0.210007">
<path opacity="0.210007" d="M562.015 354.112C562.015 354.112 604.895 329.371 623.715 332.83C642.535 336.291 675.565 336.832 677.06 343.584C678.559 350.332 635.185 347.291 621.844 348.589C608.503 349.887 557.287 365.245 562.015 354.112Z" fill="#DB5C5D"/>
</g>
</g>
<path d="M586.013 337.556C585.386 337.556 584.791 337.184 584.539 336.564C584.209 335.752 584.6 334.823 585.414 334.492C589.726 332.736 590.524 331.352 590.531 331.339C590.814 330.506 591.686 330.118 592.526 330.413C593.356 330.697 593.773 331.664 593.49 332.498C593.289 333.083 592.204 335.164 586.611 337.439C586.413 337.518 586.213 337.556 586.013 337.556Z" fill="#DB5C5D"/>
<path d="M651.524 334.188C650.242 334.188 648.078 333.8 644.68 332.143C643.888 331.761 643.56 330.809 643.945 330.017C644.327 329.228 645.284 328.904 646.07 329.285C650.261 331.325 651.82 330.984 651.839 330.984C652.65 330.644 653.516 331.042 653.859 331.85C654.203 332.658 653.764 333.613 652.952 333.959C652.742 334.048 652.291 334.188 651.524 334.188Z" fill="#DB5C5D"/>
<path d="M610.128 331.541C609.323 331.541 608.629 330.934 608.546 330.113C608.457 329.238 609.094 328.455 609.969 328.369L627.042 326.626C627.898 326.517 628.696 327.17 628.785 328.045C628.875 328.92 628.238 329.702 627.363 329.788L610.29 331.532C610.236 331.538 610.182 331.541 610.128 331.541Z" fill="#FFFCF6"/>
<path d="M586.487 191.566C586.255 191.566 586.016 191.515 585.794 191.404C576.767 187.016 571.307 180.758 569.557 172.8C565.676 155.132 581.46 135.584 582.135 134.759C582.695 134.079 583.694 133.98 584.371 134.537C585.052 135.094 585.154 136.093 584.597 136.774C584.441 136.964 569.112 155.969 572.666 172.126C574.196 179.081 579.08 184.605 587.184 188.547C587.973 188.929 588.304 189.883 587.919 190.672C587.645 191.235 587.079 191.566 586.487 191.566Z" fill="#000C3E"/>
<path d="M622.817 196.295C622.375 196.295 621.936 196.11 621.621 195.754C621.041 195.092 621.105 194.09 621.767 193.507C621.951 193.345 640.196 177.122 639.343 160.599C638.977 153.488 635.067 147.236 627.72 142.014C627.004 141.508 626.835 140.516 627.345 139.797C627.854 139.084 628.846 138.915 629.562 139.424C637.742 145.234 642.105 152.307 642.521 160.446C643.444 178.509 624.665 195.197 623.864 195.9C623.561 196.164 623.189 196.295 622.817 196.295Z" fill="#000C3E"/>
<path d="M717.447 405.181C716.986 405.181 716.528 404.984 716.213 404.593C715.659 403.915 715.761 402.913 716.442 402.356C716.652 402.184 737.578 384.707 731.517 357.058C729.181 346.399 725.087 334.671 720.75 322.256C713.231 300.725 705.455 278.459 704.822 256.874C704.797 255.993 705.49 255.265 706.368 255.236C707.192 255.265 707.978 255.901 708.004 256.779C708.624 277.874 716.315 299.904 723.753 321.206C728.122 333.717 732.249 345.53 734.625 356.374C741.113 385.98 718.679 404.641 718.449 404.825C718.154 405.064 717.8 405.181 717.447 405.181Z" fill="#000C3E"/>
<path d="M723.098 291.552C723.047 291.552 722.993 291.549 722.939 291.546C722.067 291.46 721.428 290.68 721.513 289.805C724.262 261.968 718.405 239.375 704.109 222.642C681.09 195.709 643.691 193.236 643.319 193.214C642.441 193.163 641.77 192.412 641.824 191.531C641.871 190.656 642.626 189.962 643.501 190.039C643.892 190.061 682.639 192.619 706.527 220.574C721.408 237.991 727.517 261.389 724.679 290.117C724.6 290.941 723.906 291.552 723.098 291.552Z" fill="#000C3E"/>
<path d="M609.154 378.321C609.154 378.321 625.008 367.198 639.167 376.734C639.167 376.734 622.635 382.929 609.154 378.321Z" fill="#DB5C5D"/>
<path d="M619.644 389.741C618.079 389.741 616.733 389.725 615.903 389.713C615.025 389.7 614.325 388.978 614.337 388.096C614.35 387.218 614.951 386.505 615.954 386.531C621.961 386.61 629.139 386.464 630.256 386.041C631.073 385.729 631.996 386.136 632.311 386.954C632.626 387.775 632.225 388.688 631.407 389.006C629.816 389.624 623.911 389.741 619.644 389.741Z" fill="#DB5C5D"/>
<path d="M542.48 346.204C542.337 346.204 542.194 346.185 542.051 346.144C541.204 345.908 540.711 345.033 540.946 344.184C545.299 328.584 533.743 318.539 533.625 318.437C532.957 317.871 532.874 316.865 533.444 316.194C534.01 315.526 535.016 315.443 535.687 316.016C536.228 316.474 548.907 327.499 544.01 345.043C543.813 345.743 543.177 346.204 542.48 346.204Z" fill="#DB5C5D"/>
<path d="M690.92 350.004C690.885 350.004 690.853 350.004 690.815 350.001C689.94 349.943 689.275 349.186 689.329 348.311C690.519 329.847 699.367 319.978 699.746 319.567C700.338 318.918 701.343 318.874 701.989 319.465C702.638 320.057 702.683 321.063 702.094 321.712C702.008 321.807 693.618 331.235 692.508 348.515C692.45 349.358 691.75 350.004 690.92 350.004Z" fill="#DB5C5D"/>
<path d="M658.972 401.942C658.972 401.942 664.031 458.535 657.318 467.485C650.604 476.439 608.084 469.722 596.893 467.485C585.703 465.249 585.681 371.648 587.94 377.97C606.623 430.186 657.684 383.978 658.972 401.942Z" fill="#FFCEB0"/>
<path d="M591.986 407.539C591.986 407.539 622.152 422.039 656.445 404.488C656.445 404.488 659.111 425.57 656.445 430.432C653.782 435.294 599.46 438.768 588.766 414.806C588.766 414.806 588.9 406.499 591.986 407.539" fill="#F5A473"/>
<path d="M427.249 850.877H817.622C817.622 850.877 837.562 511.475 788.662 474.567C739.759 437.656 524.486 456.094 473.804 487.622C423.122 519.149 427.249 850.877 427.249 850.877Z" fill="#FB4C47"/>
<path d="M622.153 460.778C622.153 460.778 607.106 591.242 613.674 609.4C620.237 627.558 611.828 708.066 609.155 718.531C606.48 728.995 525.374 733.44 504.445 725.069C483.515 716.698 509.777 491.046 521.492 449.299C533.211 407.548 620.864 432.146 622.153 460.778Z" fill="#05BA6E"/>
<path d="M383.969 300.933C383.969 300.933 416.598 363.425 439.465 364.004C462.335 364.584 539.454 270.668 567.889 269.701C596.328 268.737 620.747 271.496 620.859 264.718C620.97 257.938 581.307 250.537 581.307 250.537C581.307 250.537 638.667 254.19 626.802 247.916C614.941 241.641 586.515 236 586.515 236C586.515 236 627.741 237.664 628.04 233.254C628.339 228.844 585.118 222.35 585.118 222.35C585.118 222.35 637.712 220.671 628.094 213.435C618.472 206.2 600.365 209.34 551.389 216.821C502.409 224.301 391.602 289.689 383.969 300.933Z" fill="#FFCEB0"/>
<path d="M441.214 297.939C441.214 297.939 493.41 329.031 470.683 364.266C446.483 401.785 447.838 390.639 443.654 405.819C439.467 420.999 508.441 450.564 511.578 463.558C514.715 476.549 482.201 636.332 451.745 629.775C425.235 624.07 277.915 540.467 256.743 456.921C240.332 392.15 374.102 233.722 441.214 297.939Z" fill="#FB4C47"/>
<path d="M577.845 662.399C577.845 662.399 520.011 789.802 541.274 806.862C562.538 823.92 579.672 812.806 598.476 823.878C617.283 834.951 635.323 829.415 650.43 819.78C665.537 810.143 626.22 683.392 609.958 671.324C593.697 659.252 580.776 655.778 577.845 662.399Z" fill="white"/>
<path d="M770.001 465.501C770.001 465.501 801.099 469.297 825.51 514.001C843.824 547.541 879.304 743.53 825.51 771.455C771.716 799.378 721.261 784.772 701.736 765.954C682.209 747.136 716.95 650.155 740.108 642.916C763.268 635.68 770.001 465.501 770.001 465.501Z" fill="#FB4C47"/>
<path d="M780.071 462.497C780.071 462.497 781.525 453.435 736.742 434.055C701.004 418.589 670.393 444.692 615.88 447.501C561.368 450.314 566.287 428.707 527.727 438.748C468.222 454.24 515.598 493.245 534.772 497.623C553.945 502.001 618.181 609.986 780.071 462.497Z" fill="#05BA6E"/>
<path d="M623.78 353.601C623.78 353.601 623.614 357.292 625.733 357.626C627.852 357.96 631.769 356.776 630.76 351.803C630.76 351.803 625.447 353.512 623.78 353.601Z" fill="white"/>
<path d="M844.514 659.319C844.365 659.319 844.212 659.31 844.059 659.287C842.589 659.077 841.501 657.894 841.345 656.484C838.695 653.42 820.899 647.003 809.028 642.72C785.509 634.234 774.961 630.038 772.693 625.446C770.768 621.555 771.63 615.942 772.721 608.838C774.449 597.593 776.603 583.594 769.463 570.11C757.134 546.823 758.308 512.282 758.365 510.824C758.435 509.068 759.953 507.662 761.665 507.767C763.421 507.834 764.789 509.313 764.726 511.066C764.71 511.41 763.564 545.372 775.089 567.132C783.212 582.48 780.784 598.271 779.012 609.802C778.162 615.322 777.364 620.537 778.398 622.627C780.326 625.602 798.898 632.303 811.185 636.735C838.879 646.726 848.494 650.744 847.658 656.589C847.432 658.177 846.07 659.319 844.514 659.319Z" fill="#B31B1F"/>
<path d="M761.5 633.159C761.223 633.159 760.943 633.124 760.66 633.048C750.148 630.181 733.816 627.197 733.654 627.165C731.923 626.853 730.777 625.195 731.092 623.468C731.407 621.737 733.059 620.572 734.793 620.906C735.47 621.027 751.554 623.967 762.334 626.907C764.03 627.372 765.029 629.119 764.567 630.814C764.182 632.23 762.9 633.159 761.5 633.159Z" fill="#B31B1F"/>
<path d="M818.653 790.54C818.602 790.54 818.555 790.54 818.507 790.537C759.613 787.868 700.935 762.78 697.763 738.917C696.767 731.417 696.048 727.666 695.603 725.811C694.413 725.219 693.691 723.953 693.904 722.569C694.308 719.947 696.083 719.018 697.493 719.018H697.528C700.732 719.053 701.795 720.93 704.073 738.08C706.535 756.604 759.957 781.514 818.793 784.18C820.55 784.26 821.908 785.746 821.829 787.502C821.752 789.21 820.343 790.54 818.653 790.54Z" fill="#B31B1F"/>
<path d="M713.077 734.227C712.845 734.227 712.609 734.201 712.371 734.15C710.659 733.762 709.583 732.057 709.972 730.342C710.108 729.728 724.025 668.384 737.032 624.256C737.529 622.57 739.31 621.603 740.984 622.105C742.67 622.602 743.634 624.371 743.135 626.057C730.185 669.987 716.316 731.134 716.179 731.748C715.842 733.224 714.531 734.227 713.077 734.227Z" fill="#B31B1F"/>
<path d="M437 600.995C436.844 600.995 436.682 600.982 436.523 600.96C434.786 600.699 433.59 599.077 433.85 597.343C434.178 595.147 442.034 543.301 452.814 519.04C463.294 495.463 468.659 471.559 468.713 471.32C469.088 469.605 470.784 468.533 472.508 468.902C474.223 469.284 475.305 470.986 474.923 472.701C474.704 473.7 469.365 497.468 458.63 521.627C448.2 545.098 440.22 597.756 440.141 598.284C439.905 599.866 438.547 600.995 437 600.995Z" fill="#B31B1F"/>
<path d="M388.497 419.978C380.027 419.978 370.536 419.462 360.088 418.132C358.344 417.91 357.109 416.319 357.332 414.575C357.552 412.832 359.184 411.619 360.889 411.82C392.707 415.873 415.31 412.141 426.961 409.599C421.158 407.744 413.028 405.937 404.915 406.379C386.658 407.238 359.944 390.929 358.815 390.229C357.319 389.306 356.858 387.346 357.781 385.851C358.703 384.355 360.667 383.887 362.159 384.817C362.42 384.976 388.351 400.817 404.587 400.022C420.054 399.207 438.371 406.096 440.035 409.052C440.63 410.105 440.582 411.473 439.904 412.475C439.274 413.401 437.97 413.958 436.825 413.888C436.322 413.945 434.833 414.302 433.385 414.645C426.427 416.312 411.091 419.975 388.497 419.978Z" fill="#B31B1F"/>
<path d="M466.708 351.595C465.525 351.595 464.389 350.933 463.841 349.8C463.762 349.638 455.817 333.5 442.288 327.105C426.93 319.841 409.561 294.524 408.829 293.452C407.84 291.998 408.215 290.015 409.666 289.029C411.123 288.043 413.099 288.421 414.085 289.866C414.257 290.114 431.213 314.823 445.012 321.349C460.602 328.727 469.212 346.287 469.572 347.029C470.335 348.613 469.67 350.51 468.089 351.273C467.644 351.493 467.173 351.595 466.708 351.595Z" fill="#B31B1F"/>
<path d="M614.497 536.502C614.379 536.502 614.258 536.489 614.141 536.46C613.285 536.266 612.747 535.41 612.944 534.558C613.021 534.22 620.609 501.048 622.83 484.197C626.289 457.926 614.522 448.762 614.405 448.673C613.702 448.145 613.555 447.152 614.077 446.449C614.599 445.743 615.585 445.593 616.292 446.112C616.842 446.516 629.709 456.319 625.983 484.611C623.746 501.614 616.123 534.933 616.047 535.264C615.878 536.005 615.222 536.502 614.497 536.502Z" fill="#08824F"/>
<path d="M520.663 488.658L517.503 488.292C517.503 488.292 519.972 466.812 521.261 456.252C522.562 445.599 525.601 438.326 525.731 438.02C526.072 437.206 527.007 436.837 527.815 437.171C528.623 437.514 529.002 438.45 528.662 439.258C528.63 439.328 525.661 446.455 524.42 456.64C523.132 467.19 520.663 488.654 520.663 488.658Z" fill="#08824F"/>
<path d="M611.008 841.386C592.863 841.386 582.885 840.788 569.076 839.961C551.312 838.895 526.988 837.438 470.143 836.553C468.387 836.528 466.984 835.083 467.012 833.324C467.041 831.568 468.587 830.104 470.242 830.19C527.227 831.074 551.634 832.541 569.455 833.61C583.155 834.428 593.05 835.023 611.008 835.023C633.487 835.023 653.653 832.56 673.157 830.18C690.278 828.087 706.447 826.114 723.778 825.729C760.747 824.915 788.374 825.726 788.647 825.729C790.404 825.786 791.785 827.253 791.73 829.006C791.676 830.763 790.194 832.064 788.456 832.092C788.183 832.083 760.712 831.268 723.921 832.092C706.905 832.468 690.885 834.425 673.927 836.496C654.235 838.901 633.875 841.386 611.008 841.386Z" fill="#B31B1F"/>
<path d="M755.143 798.933C753.562 798.933 751.977 798.224 750.597 796.136C746.298 789.642 745 789.108 736.689 790.387C729.171 791.561 726.202 786.232 724.236 782.709C723.58 781.532 722.957 780.422 722.413 779.992C720.949 778.837 717.293 780.224 715.747 781.077L714.204 778.296C714.878 777.921 720.873 774.723 724.385 777.495C725.426 778.319 726.161 779.636 727.014 781.157C728.913 784.552 730.879 788.048 736.202 787.243C745.716 785.773 748.258 786.846 753.25 794.38C754.574 796.385 755.719 796.111 759.248 794.052C761.927 792.481 765.99 790.11 769.019 794.342L766.435 796.194C765.255 794.555 764.186 794.851 760.851 796.798C759.257 797.73 757.202 798.933 755.143 798.933Z" fill="white"/>
<path d="M718.124 649.085C718.124 649.085 642.125 621.605 609.153 635.662C576.181 649.715 549.009 685.949 554.042 688.345C559.076 690.744 586.012 669.852 586.012 669.852C586.012 669.852 558.544 697.61 563.638 700.388C568.732 703.165 595.201 688.345 595.201 688.345C595.201 688.345 576.725 708.097 584.66 709.608C592.595 711.12 609.608 694.845 627.349 694.234C645.094 693.62 667.455 707.642 689.638 711.59C711.818 715.536 718.124 649.085 718.124 649.085Z" fill="#FFCEB0"/>
<path d="M832.818 634.841C832.621 634.841 832.423 634.821 832.223 634.783C832 634.745 809.62 630.513 782.865 625.073C781.143 624.723 780.03 623.043 780.38 621.321C780.727 619.6 782.403 618.486 784.131 618.84C810.842 624.268 833.184 628.49 833.407 628.534C835.134 628.859 836.267 630.523 835.939 632.251C835.653 633.778 834.317 634.841 832.818 634.841Z" fill="#B31B1F"/>
<path fill-rule="evenodd" clip-rule="evenodd" d="M620.41 134.77C619.579 134.77 618.676 134.867 617.697 135.06C615.312 135.539 613.767 136.698 612.839 138.709C608.702 147.662 617.424 168.987 623.656 181.586C627.507 167.61 632.122 144.248 625.601 136.887C624.345 135.471 622.636 134.77 620.41 134.77ZM623.839 192.049C623.939 192.068 624.04 192.082 624.142 192.091C624.474 192.219 624.828 192.284 625.186 192.284C625.517 192.284 625.849 192.23 626.172 192.112C630.422 190.563 667.844 176.528 672.505 160.356C673.626 156.467 672.837 152.633 670.225 149.274C665.782 143.554 660.982 142.874 657.735 143.306C648.524 144.535 639.457 156.435 632.808 167.74C635.16 154.863 636.066 139.993 629.922 133.057C627.755 130.608 623.673 127.984 616.568 129.399C612.398 130.23 609.294 132.616 607.598 136.29C601.32 149.887 615.762 179.17 620.575 188.244C614.506 189.416 608.402 189.68 602.563 189.283C589.984 188.428 578.834 184.517 572.177 180.237L569.798 183.938C577.164 188.674 589.052 192.775 602.265 193.673C609.194 194.144 616.543 193.737 623.839 192.049ZM659.327 148.971C659.054 148.971 658.777 148.988 658.5 149.03C648.744 150.328 636.957 171.018 630.725 184.108C643.68 178.653 664.228 168.234 666.957 158.76C667.571 156.627 667.159 154.741 665.668 152.818C663.661 150.235 661.582 148.971 659.327 148.971Z" fill="#FFD310"/>
<path d="M197.27 243.75H310.515C317.784 243.75 324.662 247.045 329.218 252.711L362.458 294.048C367.173 299.911 374.363 303.224 381.883 302.998L594.85 296.597" stroke="#FFB2B1" stroke-width="5" stroke-linejoin="round"/>
<path d="M209.361 244.266C209.361 249.302 205.279 253.384 200.243 253.384C195.207 253.384 191.124 249.302 191.124 244.266C191.124 239.23 195.207 235.148 200.243 235.148C205.279 235.148 209.361 239.23 209.361 244.266Z" fill="#FF383D"/>
<path d="M11.0007 244.367C11.0007 205.357 42.625 173.733 81.6348 173.733C120.645 173.733 152.266 205.357 152.266 244.367C152.266 283.377 120.645 315.001 81.6348 315.001C42.625 315.001 11.0007 283.377 11.0007 244.367Z" fill="#FFE1E2"/>
<path d="M81.3303 156.491C130.103 156.491 169.64 196.029 169.64 244.801C169.64 293.573 130.103 333.114 81.3303 333.114V376.725" stroke="#FFD6D7" stroke-width="2.4" stroke-miterlimit="10"/>
<path d="M74.0679 378.928C74.0679 374.917 77.3185 371.666 81.3301 371.666C85.3418 371.666 88.5924 374.917 88.5924 378.928C88.5924 382.94 85.3418 386.19 81.3301 386.19C77.3185 386.19 74.0679 382.94 74.0679 378.928Z" fill="#F2AEB0"/>
<path d="M59.8066 243.608H53.6191V250H50.3965V234.359H60.5801V236.97H53.6191V241.009H59.8066V243.608ZM71.8594 243.222H65.6719V247.411H72.9336V250H62.4492V234.359H72.9121V236.97H65.6719V240.697H71.8594V243.222ZM74.8242 250V234.359H80.3027C82.2005 234.359 83.64 234.725 84.6211 235.455C85.6022 236.178 86.0928 237.242 86.0928 238.646C86.0928 239.412 85.8958 240.089 85.502 240.676C85.1081 241.256 84.5602 241.682 83.8584 241.954C84.6605 242.155 85.2907 242.559 85.749 243.168C86.2145 243.777 86.4473 244.521 86.4473 245.402C86.4473 246.906 85.9674 248.045 85.0078 248.818C84.0482 249.592 82.6803 249.986 80.9043 250H74.8242ZM78.0469 243.189V247.411H80.8076C81.5667 247.411 82.1576 247.232 82.5801 246.874C83.0098 246.509 83.2246 246.007 83.2246 245.37C83.2246 243.938 82.4834 243.211 81.001 243.189H78.0469ZM78.0469 240.912H80.4316C82.0573 240.883 82.8701 240.235 82.8701 238.968C82.8701 238.259 82.6624 237.75 82.2471 237.442C81.8389 237.127 81.1908 236.97 80.3027 236.97H78.0469V240.912ZM94.665 244.274H92.0977V250H88.875V234.359H94.6865C96.5342 234.359 97.9593 234.771 98.9619 235.595C99.9645 236.418 100.466 237.582 100.466 239.086C100.466 240.153 100.233 241.045 99.7676 241.761C99.3092 242.47 98.611 243.035 97.6729 243.458L101.057 249.85V250H97.5977L94.665 244.274ZM92.0977 241.664H94.6973C95.5065 241.664 96.1331 241.46 96.5771 241.052C97.0212 240.636 97.2432 240.067 97.2432 239.344C97.2432 238.606 97.0319 238.026 96.6094 237.604C96.194 237.181 95.5531 236.97 94.6865 236.97H92.0977V241.664ZM112.336 243.222H106.148V247.411H113.41V250H102.926V234.359H113.389V236.97H106.148V240.697H112.336V243.222Z" fill="#FF383D"/>
<path d="M650.77 358.046H819.584C828.398 358.046 836.503 362.878 840.695 370.631L871.944 428.42C876.136 436.173 884.241 441.004 893.055 441.004H975.84" stroke="#FFB2B1" stroke-width="5" stroke-linejoin="round"/>
<path d="M979.944 440.905C979.944 445.941 975.862 450.024 970.826 450.024C965.79 450.024 961.708 445.941 961.708 440.905C961.708 435.869 965.79 431.787 970.826 431.787C975.862 431.787 979.944 435.869 979.944 440.905Z" fill="#FF383D"/>
<path opacity="0.15" d="M1005.73 459.367C1005.73 420.357 1037.36 388.733 1076.37 388.733C1115.38 388.733 1147 420.357 1147 459.367C1147 498.377 1115.38 530.001 1076.37 530.001C1037.36 530.001 1005.73 498.377 1005.73 459.367Z" fill="#FF383D"/>
<path d="M1081.03 371.266C1129.8 371.266 1169.34 410.804 1169.34 459.579C1169.34 508.351 1129.8 547.889 1081.03 547.889V591.502" stroke="#FFD6D7" stroke-width="2.4" stroke-miterlimit="10"/>
<path d="M1073.77 593.705C1073.77 589.693 1077.02 586.443 1081.03 586.443C1085.04 586.443 1088.29 589.693 1088.29 593.705C1088.29 597.717 1085.04 600.967 1081.03 600.967C1077.02 600.967 1073.77 597.717 1073.77 593.705Z" fill="#F2AEB0"/>
<path opacity="0.15" d="M11.0007 730.367C11.0007 691.357 42.625 659.733 81.6348 659.733C120.645 659.733 152.266 691.357 152.266 730.367C152.266 769.377 120.645 801.001 81.6348 801.001C42.625 801.001 11.0007 769.377 11.0007 730.367Z" fill="#FF383D"/>
<path d="M81.3325 642.643C130.105 642.643 169.643 682.181 169.643 730.953C169.643 779.728 130.105 819.266 81.3325 819.266V862.877" stroke="#FFD6D7" stroke-width="2.4" stroke-miterlimit="10"/>
<path d="M74.0701 865.081C74.0701 861.069 77.3207 857.819 81.3323 857.819C85.344 857.819 88.5946 861.069 88.5946 865.081C88.5946 869.09 85.344 872.343 81.3323 872.343C77.3207 872.343 74.0701 869.09 74.0701 865.081Z" fill="#F2AEB0"/>
<path d="M186.74 742.835H365.033C374.666 742.835 383.365 737.075 387.127 728.208L443.54 595.234C447.302 586.366 456.002 580.607 465.634 580.607H672.809" stroke="#FFB2B1" stroke-width="5" stroke-linejoin="round"/>
<path d="M201.987 743.241C201.987 748.277 197.904 752.36 192.868 752.36C187.832 752.36 183.75 748.277 183.75 743.241C183.75 738.205 187.832 734.123 192.868 734.123C197.904 734.123 201.987 738.205 201.987 743.241Z" fill="#FF383D"/>
<path opacity="0.15" d="M159.268 488.367C159.268 449.357 127.644 417.733 88.6338 417.733C49.624 417.733 17.9998 449.357 17.9998 488.367C17.9998 527.377 49.624 559.001 88.6338 559.001C127.644 559.001 159.268 527.377 159.268 488.367Z" fill="#FF383D"/>
<path d="M63.8828 459V443.359H68.6953C70.0703 443.359 71.2985 443.671 72.3799 444.294C73.4684 444.91 74.3171 445.791 74.9258 446.937C75.5345 448.075 75.8389 449.371 75.8389 450.825V451.545C75.8389 452.999 75.5381 454.291 74.9365 455.423C74.3421 456.554 73.5007 457.432 72.4121 458.055C71.3236 458.678 70.0954 458.993 68.7275 459H63.8828ZM67.1055 445.97V456.411H68.6631C69.9235 456.411 70.8867 455.999 71.5527 455.176C72.2188 454.352 72.5589 453.174 72.5732 451.642V450.814C72.5732 449.225 72.2438 448.021 71.585 447.205C70.9261 446.382 69.9629 445.97 68.6953 445.97H67.1055ZM91.0391 451.534C91.0391 453.074 90.7669 454.424 90.2227 455.584C89.6784 456.744 88.8978 457.639 87.8809 458.27C86.8711 458.9 85.7109 459.215 84.4004 459.215C83.1042 459.215 81.9476 458.903 80.9307 458.28C79.9137 457.657 79.126 456.769 78.5674 455.616C78.0088 454.456 77.7259 453.124 77.7188 451.62V450.847C77.7188 449.307 77.9945 447.953 78.5459 446.786C79.1045 445.612 79.8887 444.713 80.8984 444.09C81.9154 443.46 83.0755 443.145 84.3789 443.145C85.6823 443.145 86.8389 443.46 87.8486 444.09C88.8656 444.713 89.6497 445.612 90.2012 446.786C90.7598 447.953 91.0391 449.303 91.0391 450.836V451.534ZM87.7734 450.825C87.7734 449.185 87.4798 447.939 86.8926 447.087C86.3053 446.235 85.4674 445.809 84.3789 445.809C83.2975 445.809 82.4632 446.231 81.876 447.076C81.2887 447.914 80.9915 449.146 80.9844 450.771V451.534C80.9844 453.131 81.278 454.37 81.8652 455.251C82.4525 456.132 83.2975 456.572 84.4004 456.572C85.4818 456.572 86.3125 456.15 86.8926 455.305C87.4727 454.452 87.7663 453.214 87.7734 451.588V450.825ZM99.1709 453.274H96.6035V459H93.3809V443.359H99.1924C101.04 443.359 102.465 443.771 103.468 444.595C104.47 445.418 104.972 446.582 104.972 448.086C104.972 449.153 104.739 450.045 104.273 450.761C103.815 451.47 103.117 452.035 102.179 452.458L105.562 458.85V459H102.104L99.1709 453.274ZM96.6035 450.664H99.2031C100.012 450.664 100.639 450.46 101.083 450.052C101.527 449.636 101.749 449.067 101.749 448.344C101.749 447.606 101.538 447.026 101.115 446.604C100.7 446.181 100.059 445.97 99.1924 445.97H96.6035V450.664ZM75.0547 488V472.359H79.8672C81.2422 472.359 82.4704 472.671 83.5518 473.294C84.6403 473.91 85.4889 474.791 86.0977 475.937C86.7064 477.075 87.0107 478.371 87.0107 479.825V480.545C87.0107 481.999 86.71 483.291 86.1084 484.423C85.514 485.554 84.6725 486.432 83.584 487.055C82.4954 487.678 81.2673 487.993 79.8994 488H75.0547ZM78.2773 474.97V485.411H79.835C81.0954 485.411 82.0586 484.999 82.7246 484.176C83.3906 483.352 83.7308 482.174 83.7451 480.642V479.814C83.7451 478.225 83.4157 477.021 82.7568 476.205C82.098 475.382 81.1348 474.97 79.8672 474.97H78.2773ZM98.7734 481.222H92.5859V485.411H99.8477V488H89.3633V472.359H99.8262V474.97H92.5859V478.697H98.7734V481.222ZM42.7744 515.023C42.1943 515.718 41.3743 516.259 40.3145 516.646C39.2546 517.025 38.0801 517.215 36.791 517.215C35.4375 517.215 34.2487 516.921 33.2246 516.334C32.2077 515.74 31.4199 514.88 30.8613 513.756C30.3099 512.632 30.027 511.31 30.0127 509.792V508.729C30.0127 507.167 30.2741 505.817 30.7969 504.679C31.3268 503.533 32.0859 502.659 33.0742 502.058C34.0697 501.449 35.2334 501.145 36.5654 501.145C38.4202 501.145 39.8704 501.589 40.916 502.477C41.9616 503.357 42.5811 504.643 42.7744 506.333H39.6377C39.4945 505.438 39.1758 504.783 38.6816 504.367C38.1947 503.952 37.5215 503.744 36.6621 503.744C35.5664 503.744 34.7321 504.156 34.1592 504.979C33.5863 505.803 33.2962 507.028 33.2891 508.653V509.652C33.2891 511.292 33.6006 512.531 34.2236 513.369C34.8467 514.207 35.7598 514.626 36.9629 514.626C38.1732 514.626 39.0361 514.368 39.5518 513.853V511.156H36.6191V508.782H42.7744V515.023ZM54.2256 513.777H48.5752L47.501 517H44.0742L49.8965 501.359H52.8828L58.7373 517H55.3105L54.2256 513.777ZM49.4453 511.167H53.3555L51.3896 505.312L49.4453 511.167ZM65.9883 511.274H63.4209V517H60.1982V501.359H66.0098C67.8574 501.359 69.2826 501.771 70.2852 502.595C71.2878 503.418 71.7891 504.582 71.7891 506.086C71.7891 507.153 71.5563 508.045 71.0908 508.761C70.6325 509.47 69.9342 510.035 68.9961 510.458L72.3799 516.85V517H68.9209L65.9883 511.274ZM63.4209 508.664H66.0205C66.8298 508.664 67.4564 508.46 67.9004 508.052C68.3444 507.636 68.5664 507.067 68.5664 506.344C68.5664 505.606 68.3551 505.026 67.9326 504.604C67.5173 504.181 66.8763 503.97 66.0098 503.97H63.4209V508.664ZM86.624 515.023C86.0439 515.718 85.224 516.259 84.1641 516.646C83.1042 517.025 81.9297 517.215 80.6406 517.215C79.2871 517.215 78.0983 516.921 77.0742 516.334C76.0573 515.74 75.2695 514.88 74.7109 513.756C74.1595 512.632 73.8766 511.31 73.8623 509.792V508.729C73.8623 507.167 74.1237 505.817 74.6465 504.679C75.1764 503.533 75.9355 502.659 76.9238 502.058C77.9193 501.449 79.083 501.145 80.415 501.145C82.2699 501.145 83.7201 501.589 84.7656 502.477C85.8112 503.357 86.4307 504.643 86.624 506.333H83.4873C83.3441 505.438 83.0254 504.783 82.5312 504.367C82.0443 503.952 81.3711 503.744 80.5117 503.744C79.416 503.744 78.5817 504.156 78.0088 504.979C77.4359 505.803 77.1458 507.028 77.1387 508.653V509.652C77.1387 511.292 77.4502 512.531 78.0732 513.369C78.6963 514.207 79.6094 514.626 80.8125 514.626C82.0228 514.626 82.8857 514.368 83.4014 513.853V511.156H80.4688V508.782H86.624V515.023ZM98.0752 513.777H92.4248L91.3506 517H87.9238L93.7461 501.359H96.7324L102.587 517H99.1602L98.0752 513.777ZM93.2949 511.167H97.2051L95.2393 505.312L93.2949 511.167ZM116.767 517H113.544L107.271 506.709V517H104.048V501.359H107.271L113.555 511.672V501.359H116.767V517ZM131.032 503.97H126.241V517H123.019V503.97H118.292V501.359H131.032V503.97ZM140.421 513.777H134.771L133.696 517H130.27L136.092 501.359H139.078L144.933 517H141.506L140.421 513.777ZM135.641 511.167H139.551L137.585 505.312L135.641 511.167Z" fill="#FF383D"/>
<path d="M89.9726 400.026C41.2003 400.026 1.6626 439.564 1.6626 488.339C1.6626 537.111 41.2003 576.649 89.9726 576.649V620.263" stroke="#FFD6D7" stroke-width="2.4" stroke-miterlimit="10"/>
<path d="M97.4327 622.546C97.4327 618.534 94.1821 615.283 90.1705 615.283C86.1615 615.283 82.9082 618.534 82.9082 622.546C82.9082 626.557 86.1615 629.808 90.1705 629.808C94.1821 629.808 97.4327 626.557 97.4327 622.546Z" fill="#F2AEB0"/>
<path d="M190.511 503.071H393.822C401.243 503.071 408.246 499.638 412.792 493.773L455.528 438.63C460.074 432.764 467.077 429.331 474.498 429.331H631.721" stroke="#FFB2B1" stroke-width="5" stroke-linejoin="round"/>
<path d="M200.761 503.587C200.761 508.623 196.678 512.705 191.642 512.705C186.606 512.705 182.524 508.623 182.524 503.587C182.524 498.551 186.606 494.468 191.642 494.468C196.678 494.468 200.761 498.551 200.761 503.587Z" fill="#FF383D"/>
<path opacity="0.13" d="M1160 700.367C1160 661.357 1128.38 629.733 1089.37 629.733C1050.36 629.733 1018.74 661.357 1018.74 700.367C1018.74 739.376 1050.36 771.001 1089.37 771.001C1128.38 771.001 1160 739.376 1160 700.367Z" fill="#FF383D"/>
<path d="M1089.87 613.802C1041.1 613.802 1001.56 653.34 1001.56 702.112C1001.56 750.887 1041.1 790.425 1089.87 790.425V834.036" stroke="#FFD6D7" stroke-width="2.4" stroke-miterlimit="10"/>
<path d="M1097.13 836.239C1097.13 832.228 1093.88 828.977 1089.86 828.977C1085.85 828.977 1082.6 832.228 1082.6 836.239C1082.6 840.248 1085.85 843.502 1089.86 843.502C1093.88 843.502 1097.13 840.248 1097.13 836.239Z" fill="#F2AEB0"/>
<path d="M725.738 754.401H816.846C824.124 754.401 831.009 751.099 835.565 745.422L861.096 713.606C865.651 707.93 872.536 704.627 879.814 704.627H973.995" stroke="#FFA6A6" stroke-width="5" stroke-linejoin="round"/>
<path d="M979.943 703.913C979.943 708.949 975.861 713.032 970.825 713.032C965.789 713.032 961.706 708.949 961.706 703.913C961.706 698.877 965.789 694.795 970.825 694.795C975.861 694.795 979.943 698.877 979.943 703.913Z" fill="#FF383D"/>
<path opacity="0.15" d="M1160 214.367C1160 175.357 1128.38 143.733 1089.37 143.733C1050.36 143.733 1018.74 175.357 1018.74 214.367C1018.74 253.377 1050.36 285.001 1089.37 285.001C1128.38 285.001 1160 253.377 1160 214.367Z" fill="#FF383D"/>
<path d="M1067.38 189V173.359H1072.2C1073.57 173.359 1074.8 173.671 1075.88 174.294C1076.97 174.91 1077.82 175.791 1078.43 176.937C1079.03 178.075 1079.34 179.371 1079.34 180.825V181.545C1079.34 182.999 1079.04 184.291 1078.44 185.423C1077.84 186.554 1077 187.432 1075.91 188.055C1074.82 188.678 1073.6 188.993 1072.23 189H1067.38ZM1070.61 175.97V186.411H1072.16C1073.42 186.411 1074.39 185.999 1075.05 185.176C1075.72 184.352 1076.06 183.174 1076.07 181.642V180.814C1076.07 179.225 1075.74 178.021 1075.08 177.205C1074.43 176.382 1073.46 175.97 1072.2 175.97H1070.61ZM1094.54 181.534C1094.54 183.074 1094.27 184.424 1093.72 185.584C1093.18 186.744 1092.4 187.639 1091.38 188.27C1090.37 188.9 1089.21 189.215 1087.9 189.215C1086.6 189.215 1085.45 188.903 1084.43 188.28C1083.41 187.657 1082.63 186.769 1082.07 185.616C1081.51 184.456 1081.23 183.124 1081.22 181.62V180.847C1081.22 179.307 1081.49 177.953 1082.05 176.786C1082.6 175.612 1083.39 174.713 1084.4 174.09C1085.42 173.46 1086.58 173.145 1087.88 173.145C1089.18 173.145 1090.34 173.46 1091.35 174.09C1092.37 174.713 1093.15 175.612 1093.7 176.786C1094.26 177.953 1094.54 179.303 1094.54 180.836V181.534ZM1091.27 180.825C1091.27 179.185 1090.98 177.939 1090.39 177.087C1089.81 176.235 1088.97 175.809 1087.88 175.809C1086.8 175.809 1085.96 176.231 1085.38 177.076C1084.79 177.914 1084.49 179.146 1084.48 180.771V181.534C1084.48 183.131 1084.78 184.37 1085.37 185.251C1085.95 186.132 1086.8 186.572 1087.9 186.572C1088.98 186.572 1089.81 186.15 1090.39 185.305C1090.97 184.452 1091.27 183.214 1091.27 181.588V180.825ZM1102.67 183.274H1100.1V189H1096.88V173.359H1102.69C1104.54 173.359 1105.97 173.771 1106.97 174.595C1107.97 175.418 1108.47 176.582 1108.47 178.086C1108.47 179.153 1108.24 180.045 1107.77 180.761C1107.32 181.47 1106.62 182.035 1105.68 182.458L1109.06 188.85V189H1105.6L1102.67 183.274ZM1100.1 180.664H1102.7C1103.51 180.664 1104.14 180.46 1104.58 180.052C1105.03 179.636 1105.25 179.067 1105.25 178.344C1105.25 177.606 1105.04 177.026 1104.62 176.604C1104.2 176.181 1103.56 175.97 1102.69 175.97H1100.1V180.664ZM1075.82 220V204.359H1080.63C1082 204.359 1083.23 204.671 1084.31 205.294C1085.4 205.91 1086.25 206.791 1086.86 207.937C1087.47 209.075 1087.77 210.371 1087.77 211.825V212.545C1087.77 213.999 1087.47 215.291 1086.87 216.423C1086.27 217.554 1085.43 218.432 1084.34 219.055C1083.26 219.678 1082.03 219.993 1080.66 220H1075.82ZM1079.04 206.97V217.411H1080.6C1081.86 217.411 1082.82 216.999 1083.49 216.176C1084.15 215.352 1084.49 214.174 1084.51 212.642V211.814C1084.51 210.225 1084.18 209.021 1083.52 208.205C1082.86 207.382 1081.9 206.97 1080.63 206.97H1079.04ZM1099.53 213.222H1093.35V217.411H1100.61V220H1090.12V204.359H1100.59V206.97H1093.35V210.697H1099.53V213.222ZM1061.76 245.79C1061.64 247.473 1061.02 248.798 1059.9 249.765C1058.78 250.731 1057.3 251.215 1055.47 251.215C1053.46 251.215 1051.89 250.542 1050.73 249.195C1049.59 247.842 1049.01 245.987 1049.01 243.631V242.675C1049.01 241.171 1049.28 239.846 1049.81 238.7C1050.34 237.554 1051.09 236.677 1052.08 236.068C1053.06 235.452 1054.21 235.145 1055.51 235.145C1057.32 235.145 1058.77 235.628 1059.87 236.595C1060.98 237.562 1061.61 238.919 1061.79 240.666H1058.56C1058.48 239.656 1058.2 238.926 1057.71 238.475C1057.24 238.016 1056.5 237.787 1055.51 237.787C1054.44 237.787 1053.63 238.174 1053.1 238.947C1052.57 239.714 1052.29 240.906 1052.28 242.524V243.706C1052.28 245.396 1052.53 246.632 1053.04 247.412C1053.56 248.193 1054.37 248.583 1055.47 248.583C1056.47 248.583 1057.21 248.357 1057.69 247.906C1058.19 247.448 1058.47 246.743 1058.54 245.79H1061.76ZM1072.71 247.777H1067.06L1065.99 251H1062.56L1068.38 235.359H1071.37L1077.22 251H1073.8L1072.71 247.777ZM1067.93 245.167H1071.84L1069.88 239.312L1067.93 245.167ZM1078.68 251V235.359H1084.16C1086.06 235.359 1087.5 235.725 1088.48 236.455C1089.46 237.178 1089.95 238.242 1089.95 239.646C1089.95 240.412 1089.76 241.089 1089.36 241.676C1088.97 242.256 1088.42 242.682 1087.72 242.954C1088.52 243.155 1089.15 243.559 1089.61 244.168C1090.07 244.777 1090.31 245.521 1090.31 246.402C1090.31 247.906 1089.83 249.045 1088.87 249.818C1087.91 250.592 1086.54 250.986 1084.76 251H1078.68ZM1081.91 244.189V248.411H1084.67C1085.43 248.411 1086.02 248.232 1086.44 247.874C1086.87 247.509 1087.08 247.007 1087.08 246.37C1087.08 244.938 1086.34 244.211 1084.86 244.189H1081.91ZM1081.91 241.912H1084.29C1085.92 241.883 1086.73 241.235 1086.73 239.968C1086.73 239.259 1086.52 238.75 1086.11 238.442C1085.7 238.127 1085.05 237.97 1084.16 237.97H1081.91V241.912ZM1102.14 244.222H1095.96V248.411H1103.22V251H1092.73V235.359H1103.2V237.97H1095.96V241.697H1102.14V244.222ZM1117.39 245.79C1117.27 247.473 1116.64 248.798 1115.52 249.765C1114.4 250.731 1112.93 251.215 1111.09 251.215C1109.09 251.215 1107.51 250.542 1106.36 249.195C1105.21 247.842 1104.64 245.987 1104.64 243.631V242.675C1104.64 241.171 1104.9 239.846 1105.43 238.7C1105.96 237.554 1106.72 236.677 1107.7 236.068C1108.69 235.452 1109.83 235.145 1111.14 235.145C1112.94 235.145 1114.39 235.628 1115.5 236.595C1116.6 237.562 1117.24 238.919 1117.41 240.666H1114.19C1114.11 239.656 1113.82 238.926 1113.34 238.475C1112.86 238.016 1112.12 237.787 1111.14 237.787C1110.06 237.787 1109.26 238.174 1108.72 238.947C1108.19 239.714 1107.92 240.906 1107.9 242.524V243.706C1107.9 245.396 1108.16 246.632 1108.67 247.412C1109.18 248.193 1109.99 248.583 1111.09 248.583C1112.09 248.583 1112.83 248.357 1113.32 247.906C1113.81 247.448 1114.09 246.743 1114.17 245.79H1117.39ZM1112.27 250.936L1112.16 251.559C1113.23 251.752 1113.77 252.371 1113.77 253.417C1113.77 254.205 1113.44 254.828 1112.78 255.286C1112.13 255.744 1111.21 255.974 1110.02 255.974L1109.94 254.18C1110.75 254.18 1111.15 253.89 1111.15 253.31C1111.15 253.009 1111.02 252.801 1110.78 252.687C1110.54 252.579 1110.16 252.507 1109.62 252.472L1109.95 250.936H1112.27ZM1128.33 247.777H1122.68L1121.61 251H1118.18L1124 235.359H1126.99L1132.85 251H1129.42L1128.33 247.777ZM1123.55 245.167H1127.46L1125.5 239.312L1123.55 245.167Z" fill="#FF383D"/>
<path d="M1089.87 127.65C1041.1 127.65 1001.56 167.188 1001.56 215.96C1001.56 264.733 1041.1 304.273 1089.87 304.273V347.884" stroke="#FFD6D7" stroke-width="2.4" stroke-miterlimit="10"/>
<path d="M1050.98 461.79C1050.85 463.473 1050.23 464.798 1049.11 465.765C1047.99 466.731 1046.51 467.215 1044.68 467.215C1042.68 467.215 1041.1 466.542 1039.94 465.195C1038.8 463.842 1038.23 461.987 1038.23 459.631V458.675C1038.23 457.171 1038.49 455.846 1039.02 454.7C1039.55 453.554 1040.31 452.677 1041.29 452.068C1042.28 451.452 1043.42 451.145 1044.72 451.145C1046.53 451.145 1047.98 451.628 1049.09 452.595C1050.19 453.562 1050.83 454.919 1051 456.666H1047.78C1047.7 455.656 1047.41 454.926 1046.93 454.475C1046.45 454.016 1045.71 453.787 1044.72 453.787C1043.65 453.787 1042.84 454.174 1042.31 454.947C1041.78 455.714 1041.51 456.906 1041.49 458.524V459.706C1041.49 461.396 1041.75 462.632 1042.25 463.412C1042.77 464.193 1043.58 464.583 1044.68 464.583C1045.68 464.583 1046.42 464.357 1046.91 463.906C1047.4 463.448 1047.68 462.743 1047.75 461.79H1050.98ZM1065.94 459.534C1065.94 461.074 1065.67 462.424 1065.12 463.584C1064.58 464.744 1063.8 465.639 1062.78 466.27C1061.77 466.9 1060.61 467.215 1059.3 467.215C1058.01 467.215 1056.85 466.903 1055.83 466.28C1054.82 465.657 1054.03 464.769 1053.47 463.616C1052.91 462.456 1052.63 461.124 1052.62 459.62V458.847C1052.62 457.307 1052.9 455.953 1053.45 454.786C1054.01 453.612 1054.79 452.713 1055.8 452.09C1056.82 451.46 1057.98 451.145 1059.28 451.145C1060.58 451.145 1061.74 451.46 1062.75 452.09C1063.77 452.713 1064.55 453.612 1065.1 454.786C1065.66 455.953 1065.94 457.303 1065.94 458.836V459.534ZM1062.67 458.825C1062.67 457.185 1062.38 455.939 1061.79 455.087C1061.21 454.235 1060.37 453.809 1059.28 453.809C1058.2 453.809 1057.36 454.231 1056.78 455.076C1056.19 455.914 1055.89 457.146 1055.89 458.771V459.534C1055.89 461.131 1056.18 462.37 1056.77 463.251C1057.35 464.132 1058.2 464.572 1059.3 464.572C1060.38 464.572 1061.21 464.15 1061.79 463.305C1062.37 462.452 1062.67 461.214 1062.67 459.588V458.825ZM1074.07 461.274H1071.5V467H1068.28V451.359H1074.09C1075.94 451.359 1077.37 451.771 1078.37 452.595C1079.37 453.418 1079.87 454.582 1079.87 456.086C1079.87 457.153 1079.64 458.045 1079.17 458.761C1078.72 459.47 1078.02 460.035 1077.08 460.458L1080.46 466.85V467H1077L1074.07 461.274ZM1071.5 458.664H1074.1C1074.91 458.664 1075.54 458.46 1075.98 458.052C1076.43 457.636 1076.65 457.067 1076.65 456.344C1076.65 455.606 1076.44 455.026 1076.02 454.604C1075.6 454.181 1074.96 453.97 1074.09 453.97H1071.5V458.664ZM1085.76 467H1082.54V451.359H1085.76V467ZM1096.87 462.896C1096.87 462.288 1096.65 461.822 1096.22 461.5C1095.79 461.171 1095.02 460.827 1093.9 460.469C1092.79 460.104 1091.9 459.745 1091.25 459.395C1089.47 458.435 1088.58 457.142 1088.58 455.517C1088.58 454.672 1088.82 453.92 1089.29 453.261C1089.77 452.595 1090.46 452.076 1091.35 451.703C1092.24 451.331 1093.24 451.145 1094.35 451.145C1095.47 451.145 1096.47 451.349 1097.34 451.757C1098.21 452.158 1098.89 452.727 1099.37 453.465C1099.86 454.202 1100.1 455.04 1100.1 455.979H1096.88C1096.88 455.262 1096.65 454.707 1096.2 454.313C1095.75 453.912 1095.12 453.712 1094.3 453.712C1093.51 453.712 1092.9 453.88 1092.46 454.217C1092.03 454.546 1091.81 454.983 1091.81 455.527C1091.81 456.036 1092.06 456.462 1092.57 456.806C1093.09 457.149 1093.84 457.472 1094.84 457.772C1096.67 458.324 1098.01 459.008 1098.84 459.824C1099.68 460.641 1100.1 461.658 1100.1 462.875C1100.1 464.229 1099.59 465.292 1098.56 466.065C1097.54 466.832 1096.16 467.215 1094.43 467.215C1093.23 467.215 1092.13 466.996 1091.14 466.56C1090.15 466.116 1089.4 465.51 1088.88 464.744C1088.36 463.978 1088.1 463.09 1088.1 462.08H1091.33C1091.33 463.806 1092.37 464.669 1094.43 464.669C1095.19 464.669 1095.79 464.515 1096.22 464.207C1096.65 463.892 1096.87 463.455 1096.87 462.896ZM1111.12 463.777H1105.47L1104.4 467H1100.97L1106.79 451.359H1109.78L1115.63 467H1112.21L1111.12 463.777ZM1106.34 461.167H1110.25L1108.29 455.312L1106.34 461.167Z" fill="#FF383D"/>
<path d="M1033.26 685.491V690H1030.63V677.203H1035.62C1036.58 677.203 1037.42 677.379 1038.15 677.73C1038.88 678.082 1039.45 678.583 1039.84 679.233C1040.23 679.878 1040.43 680.613 1040.43 681.439C1040.43 682.693 1040 683.684 1039.13 684.41C1038.28 685.131 1037.09 685.491 1035.58 685.491H1033.26ZM1033.26 683.355H1035.62C1036.32 683.355 1036.85 683.191 1037.21 682.863C1037.58 682.535 1037.76 682.066 1037.76 681.457C1037.76 680.83 1037.58 680.323 1037.21 679.937C1036.84 679.55 1036.33 679.351 1035.68 679.339H1033.26V683.355ZM1046.98 685.315H1044.88V690H1042.25V677.203H1047C1048.51 677.203 1049.68 677.54 1050.5 678.214C1051.32 678.888 1051.73 679.84 1051.73 681.07C1051.73 681.943 1051.54 682.673 1051.16 683.259C1050.78 683.839 1050.21 684.302 1049.44 684.647L1052.21 689.877V690H1049.38L1046.98 685.315ZM1044.88 683.18H1047.01C1047.67 683.18 1048.18 683.013 1048.55 682.679C1048.91 682.339 1049.09 681.873 1049.09 681.281C1049.09 680.678 1048.92 680.203 1048.57 679.857C1048.23 679.512 1047.71 679.339 1047 679.339H1044.88V683.18ZM1064.25 683.892C1064.25 685.151 1064.03 686.256 1063.59 687.205C1063.14 688.154 1062.5 688.887 1061.67 689.402C1060.84 689.918 1059.89 690.176 1058.82 690.176C1057.76 690.176 1056.82 689.921 1055.98 689.411C1055.15 688.901 1054.51 688.175 1054.05 687.231C1053.59 686.282 1053.36 685.192 1053.36 683.962V683.329C1053.36 682.069 1053.58 680.962 1054.03 680.007C1054.49 679.046 1055.13 678.311 1055.96 677.801C1056.79 677.285 1057.74 677.027 1058.8 677.027C1059.87 677.027 1060.82 677.285 1061.64 677.801C1062.48 678.311 1063.12 679.046 1063.57 680.007C1064.03 680.962 1064.25 682.066 1064.25 683.32V683.892ZM1061.58 683.312C1061.58 681.97 1061.34 680.95 1060.86 680.253C1060.38 679.556 1059.7 679.207 1058.8 679.207C1057.92 679.207 1057.24 679.553 1056.76 680.244C1056.28 680.93 1056.03 681.938 1056.03 683.268V683.892C1056.03 685.198 1056.27 686.212 1056.75 686.933C1057.23 687.653 1057.92 688.014 1058.82 688.014C1059.71 688.014 1060.39 687.668 1060.86 686.977C1061.34 686.279 1061.58 685.266 1061.58 683.936V683.312ZM1066.17 690V677.203H1070.65C1072.21 677.203 1073.38 677.502 1074.19 678.1C1074.99 678.691 1075.39 679.562 1075.39 680.71C1075.39 681.337 1075.23 681.891 1074.91 682.371C1074.58 682.846 1074.14 683.194 1073.56 683.417C1074.22 683.581 1074.73 683.912 1075.11 684.41C1075.49 684.908 1075.68 685.518 1075.68 686.238C1075.68 687.469 1075.29 688.4 1074.5 689.033C1073.72 689.666 1072.6 689.988 1071.14 690H1066.17ZM1068.81 684.428V687.882H1071.07C1071.69 687.882 1072.17 687.735 1072.52 687.442C1072.87 687.144 1073.04 686.733 1073.04 686.212C1073.04 685.04 1072.44 684.445 1071.22 684.428H1068.81ZM1068.81 682.564H1070.76C1072.09 682.541 1072.75 682.011 1072.75 680.974C1072.75 680.394 1072.58 679.978 1072.24 679.726C1071.91 679.468 1071.38 679.339 1070.65 679.339H1068.81V682.564ZM1080.3 687.882H1085.9V690H1077.67V677.203H1080.3V687.882ZM1095.12 684.454H1090.06V687.882H1096V690H1087.42V677.203H1095.98V679.339H1090.06V682.389H1095.12V684.454ZM1100.99 677.203L1104.28 686.484L1107.55 677.203H1111.01V690H1108.37V686.502L1108.63 680.464L1105.18 690H1103.37L1099.92 680.473L1100.18 686.502V690H1097.55V677.203H1100.99ZM1120.7 687.363H1116.07L1115.2 690H1112.39L1117.16 677.203H1119.6L1124.39 690H1121.58L1120.7 687.363ZM1116.79 685.228H1119.99L1118.38 680.438L1116.79 685.228ZM1132.22 686.643C1132.22 686.145 1132.04 685.764 1131.69 685.5C1131.34 685.23 1130.71 684.949 1129.79 684.656C1128.88 684.357 1128.16 684.064 1127.62 683.777C1126.17 682.992 1125.44 681.935 1125.44 680.604C1125.44 679.913 1125.64 679.298 1126.02 678.759C1126.42 678.214 1126.98 677.789 1127.7 677.484C1128.43 677.18 1129.25 677.027 1130.16 677.027C1131.08 677.027 1131.89 677.194 1132.61 677.528C1133.32 677.856 1133.88 678.322 1134.27 678.926C1134.67 679.529 1134.87 680.215 1134.87 680.982H1132.23C1132.23 680.396 1132.04 679.942 1131.67 679.62C1131.31 679.292 1130.79 679.128 1130.12 679.128C1129.47 679.128 1128.97 679.266 1128.62 679.541C1128.26 679.811 1128.08 680.168 1128.08 680.613C1128.08 681.029 1128.29 681.378 1128.7 681.659C1129.13 681.94 1129.74 682.204 1130.56 682.45C1132.06 682.901 1133.15 683.461 1133.84 684.129C1134.52 684.797 1134.87 685.629 1134.87 686.625C1134.87 687.732 1134.45 688.603 1133.61 689.235C1132.77 689.862 1131.64 690.176 1130.22 690.176C1129.24 690.176 1128.34 689.997 1127.54 689.64C1126.73 689.276 1126.11 688.781 1125.68 688.154C1125.26 687.527 1125.05 686.801 1125.05 685.975H1127.69C1127.69 687.387 1128.54 688.093 1130.22 688.093C1130.85 688.093 1131.34 687.967 1131.69 687.715C1132.04 687.457 1132.22 687.1 1132.22 686.643ZM1035.05 713.454H1029.99V716.882H1035.93V719H1027.35V706.203H1035.91V708.339H1029.99V711.389H1035.05V713.454ZM1044.11 715.643C1044.11 715.145 1043.93 714.764 1043.58 714.5C1043.23 714.23 1042.6 713.949 1041.68 713.656C1040.77 713.357 1040.05 713.064 1039.51 712.777C1038.06 711.992 1037.33 710.935 1037.33 709.604C1037.33 708.913 1037.53 708.298 1037.91 707.759C1038.31 707.214 1038.87 706.789 1039.59 706.484C1040.32 706.18 1041.14 706.027 1042.05 706.027C1042.97 706.027 1043.78 706.194 1044.5 706.528C1045.21 706.856 1045.76 707.322 1046.16 707.926C1046.56 708.529 1046.75 709.215 1046.75 709.982H1044.12C1044.12 709.396 1043.93 708.942 1043.56 708.62C1043.2 708.292 1042.68 708.128 1042.01 708.128C1041.36 708.128 1040.86 708.266 1040.51 708.541C1040.15 708.811 1039.97 709.168 1039.97 709.613C1039.97 710.029 1040.18 710.378 1040.59 710.659C1041.02 710.94 1041.63 711.204 1042.45 711.45C1043.95 711.901 1045.04 712.461 1045.73 713.129C1046.41 713.797 1046.75 714.629 1046.75 715.625C1046.75 716.732 1046.34 717.603 1045.5 718.235C1044.66 718.862 1043.53 719.176 1042.11 719.176C1041.13 719.176 1040.23 718.997 1039.42 718.64C1038.62 718.276 1038 717.781 1037.57 717.154C1037.15 716.527 1036.94 715.801 1036.94 714.975H1039.58C1039.58 716.387 1040.43 717.093 1042.11 717.093C1042.74 717.093 1043.23 716.967 1043.58 716.715C1043.93 716.457 1044.11 716.1 1044.11 715.643ZM1058.18 708.339H1054.26V719H1051.62V708.339H1047.76V706.203H1058.18V708.339ZM1069.96 712.892C1069.96 714.151 1069.74 715.256 1069.29 716.205C1068.84 717.154 1068.21 717.887 1067.37 718.402C1066.55 718.918 1065.6 719.176 1064.53 719.176C1063.47 719.176 1062.52 718.921 1061.69 718.411C1060.86 717.901 1060.21 717.175 1059.75 716.231C1059.3 715.282 1059.07 714.192 1059.06 712.962V712.329C1059.06 711.069 1059.29 709.962 1059.74 709.007C1060.19 708.046 1060.83 707.311 1061.66 706.801C1062.49 706.285 1063.44 706.027 1064.51 706.027C1065.58 706.027 1066.52 706.285 1067.35 706.801C1068.18 707.311 1068.82 708.046 1069.27 709.007C1069.73 709.962 1069.96 711.066 1069.96 712.32V712.892ZM1067.29 712.312C1067.29 710.97 1067.05 709.95 1066.57 709.253C1066.08 708.556 1065.4 708.207 1064.51 708.207C1063.62 708.207 1062.94 708.553 1062.46 709.244C1061.98 709.93 1061.74 710.938 1061.73 712.268V712.892C1061.73 714.198 1061.97 715.212 1062.45 715.933C1062.93 716.653 1063.62 717.014 1064.53 717.014C1065.41 717.014 1066.09 716.668 1066.57 715.977C1067.04 715.279 1067.28 714.266 1067.29 712.936V712.312ZM1067.88 705.236V705.342H1065.86L1064.51 704.067L1063.16 705.342H1061.17V705.201L1063.77 702.775H1065.25L1067.88 705.236ZM1075.32 706.203L1078.61 715.484L1081.88 706.203H1085.34V719H1082.69V715.502L1082.96 709.464L1079.5 719H1077.69L1074.25 709.473L1074.51 715.502V719H1071.87V706.203H1075.32ZM1095.02 716.363H1090.4L1089.52 719H1086.72L1091.48 706.203H1093.93L1098.72 719H1095.91L1095.02 716.363ZM1091.11 714.228H1094.31L1092.7 709.438L1091.11 714.228ZM1109.76 714.737C1109.66 716.114 1109.15 717.198 1108.23 717.989C1107.32 718.78 1106.11 719.176 1104.61 719.176C1102.97 719.176 1101.68 718.625 1100.74 717.523C1099.8 716.416 1099.33 714.898 1099.33 712.971V712.188C1099.33 710.958 1099.55 709.874 1099.98 708.937C1100.42 707.999 1101.03 707.281 1101.84 706.783C1102.64 706.279 1103.58 706.027 1104.65 706.027C1106.12 706.027 1107.31 706.423 1108.22 707.214C1109.12 708.005 1109.64 709.115 1109.78 710.545H1107.14C1107.08 709.719 1106.85 709.121 1106.45 708.752C1106.06 708.377 1105.46 708.189 1104.65 708.189C1103.77 708.189 1103.11 708.506 1102.67 709.139C1102.24 709.766 1102.01 710.741 1102 712.065V713.032C1102 714.415 1102.21 715.426 1102.63 716.064C1103.05 716.703 1103.71 717.022 1104.61 717.022C1105.43 717.022 1106.03 716.838 1106.43 716.469C1106.84 716.094 1107.07 715.517 1107.13 714.737H1109.76ZM1118.72 716.363H1114.1L1113.22 719H1110.41L1115.18 706.203H1117.62L1122.41 719H1119.61L1118.72 716.363ZM1114.81 714.228H1118.01L1116.4 709.438L1114.81 714.228ZM1126.41 719H1123.77V706.203H1126.41V719ZM1135.5 715.643C1135.5 715.145 1135.32 714.764 1134.97 714.5C1134.62 714.23 1133.99 713.949 1133.07 713.656C1132.16 713.357 1131.43 713.064 1130.9 712.777C1129.45 711.992 1128.72 710.935 1128.72 709.604C1128.72 708.913 1128.92 708.298 1129.3 707.759C1129.69 707.214 1130.25 706.789 1130.98 706.484C1131.71 706.18 1132.53 706.027 1133.44 706.027C1134.36 706.027 1135.17 706.194 1135.88 706.528C1136.6 706.856 1137.15 707.322 1137.55 707.926C1137.94 708.529 1138.14 709.215 1138.14 709.982H1135.51C1135.51 709.396 1135.32 708.942 1134.95 708.62C1134.58 708.292 1134.07 708.128 1133.4 708.128C1132.75 708.128 1132.25 708.266 1131.89 708.541C1131.54 708.811 1131.36 709.168 1131.36 709.613C1131.36 710.029 1131.57 710.378 1131.98 710.659C1132.4 710.94 1133.02 711.204 1133.84 711.45C1135.34 711.901 1136.43 712.461 1137.12 713.129C1137.8 713.797 1138.14 714.629 1138.14 715.625C1138.14 716.732 1137.72 717.603 1136.89 718.235C1136.05 718.862 1134.92 719.176 1133.5 719.176C1132.52 719.176 1131.62 718.997 1130.81 718.64C1130 718.276 1129.39 717.781 1128.96 717.154C1128.54 716.527 1128.33 715.801 1128.33 714.975H1130.97C1130.97 716.387 1131.82 717.093 1133.5 717.093C1134.13 717.093 1134.62 716.967 1134.97 716.715C1135.32 716.457 1135.5 716.1 1135.5 715.643Z" fill="#FF383D"/>
<path d="M1097.13 350.088C1097.13 346.076 1093.88 342.826 1089.87 342.826C1085.86 342.826 1082.61 346.076 1082.61 350.088C1082.61 354.1 1085.86 357.35 1089.87 357.35C1093.88 357.35 1097.13 354.1 1097.13 350.088Z" fill="#F2AEB0"/>
<path d="M59.248 723.608H53.0605V730H49.8379V714.359H60.0215V716.97H53.0605V721.009H59.248V723.608ZM68.6582 726.777H63.0078L61.9336 730H58.5068L64.3291 714.359H67.3154L73.1699 730H69.7432L68.6582 726.777ZM63.8779 724.167H67.7881L65.8223 718.312L63.8779 724.167ZM77.8535 727.411H84.6963V730H74.6309V714.359H77.8535V727.411ZM96.1152 716.97H91.3242V730H88.1016V716.97H83.375V714.359H96.1152V716.97ZM105.504 726.777H99.8535L98.7793 730H95.3525L101.175 714.359H104.161L110.016 730H106.589L105.504 726.777ZM100.724 724.167H104.634L102.668 718.312L100.724 724.167ZM52.8887 761V745.359H57.7012C59.0762 745.359 60.3044 745.671 61.3857 746.294C62.4743 746.91 63.3229 747.791 63.9316 748.937C64.5404 750.075 64.8447 751.371 64.8447 752.825V753.545C64.8447 754.999 64.5439 756.291 63.9424 757.423C63.348 758.554 62.5065 759.432 61.418 760.055C60.3294 760.678 59.1012 760.993 57.7334 761H52.8887ZM56.1113 747.97V758.411H57.6689C58.9294 758.411 59.8926 757.999 60.5586 757.176C61.2246 756.352 61.5648 755.174 61.5791 753.642V752.814C61.5791 751.225 61.2497 750.021 60.5908 749.205C59.932 748.382 58.9688 747.97 57.7012 747.97H56.1113ZM76.6074 754.222H70.4199V758.411H77.6816V761H67.1973V745.359H77.6602V747.97H70.4199V751.697H76.6074V754.222ZM93.8809 757.777H88.2305L87.1562 761H83.7295L89.5518 745.359H92.5381L98.3926 761H94.9658L93.8809 757.777ZM89.1006 755.167H93.0107L91.0449 749.312L89.1006 755.167ZM105.644 755.274H103.076V761H99.8535V745.359H105.665C107.513 745.359 108.938 745.771 109.94 746.595C110.943 747.418 111.444 748.582 111.444 750.086C111.444 751.153 111.212 752.045 110.746 752.761C110.288 753.47 109.59 754.035 108.651 754.458L112.035 760.85V761H108.576L105.644 755.274ZM103.076 752.664H105.676C106.485 752.664 107.112 752.46 107.556 752.052C108 751.636 108.222 751.067 108.222 750.344C108.222 749.606 108.01 749.026 107.588 748.604C107.173 748.181 106.532 747.97 105.665 747.97H103.076V752.664Z" fill="#FF383D"/>
<path d="M975.839 222.86H849.559C843.442 222.86 837.555 225.196 833.102 229.391L804.567 256.272C800.114 260.466 794.228 262.802 788.11 262.802H674.12" stroke="#FFB2B1" stroke-width="5" stroke-linejoin="round"/>
<path d="M979.941 222.146C979.941 227.182 975.859 231.265 970.822 231.265C965.786 231.265 961.704 227.182 961.704 222.146C961.704 217.11 965.786 213.028 970.822 213.028C975.859 213.028 979.941 217.11 979.941 222.146Z" fill="#FF383D"/>
<defs>
<linearGradient id="paint0_linear" x1="279.615" y1="651.802" x2="343.866" y2="780.176" gradientUnits="userSpaceOnUse">
<stop stop-color="#FFC8C8"/>
<stop offset="1" stop-color="#FFF2F5"/>
</linearGradient>
<linearGradient id="paint1_linear" x1="911.18" y1="248.5" x2="389.511" y2="38.2379" gradientUnits="userSpaceOnUse">
<stop stop-color="white"/>
<stop offset="1" stop-color="#FFD5D5"/>
</linearGradient>
<linearGradient id="paint2_linear" x1="843.946" y1="153.536" x2="682.873" y2="126.968" gradientUnits="userSpaceOnUse">
<stop stop-color="#FFD3D3"/>
<stop offset="1" stop-color="#FFF6F6"/>
</linearGradient>
<linearGradient id="paint3_linear" x1="205.431" y1="428.026" x2="962.765" y2="428.026" gradientUnits="userSpaceOnUse">
<stop stop-color="#FFF8F5"/>
<stop offset="1" stop-color="#FFDEDE"/>
</linearGradient>
<linearGradient id="paint4_linear" x1="893.009" y1="609.535" x2="694.623" y2="627.819" gradientUnits="userSpaceOnUse">
<stop stop-color="#FFC2C2"/>
<stop offset="1" stop-color="white"/>
</linearGradient>
</defs>
</svg>
